<svg xmlns="http://www.w3.org/2000/svg" xmlns:xlink="http://www.w3.org/1999/xlink" viewBox="0 0 1370.35 336.79"><defs><style>.cls-1,.cls-2{opacity:0.7;}.cls-1{fill:url(#Dégradé_sans_nom_39);}.cls-2{fill:url(#Dégradé_sans_nom_39-2);}.cls-3,.cls-4,.cls-5{opacity:0.71;}.cls-3{fill:url(#Dégradé_sans_nom_11);}.cls-4{fill:url(#Dégradé_sans_nom_39-3);}.cls-5{fill:url(#Dégradé_sans_nom_11-2);}.cls-6,.cls-7{opacity:0.69;}.cls-6{fill:url(#Dégradé_sans_nom_11-3);}.cls-7{fill:url(#Dégradé_sans_nom_39-4);}.cls-8{fill:#fff;}</style><linearGradient id="Dégradé_sans_nom_39" y1="166.78" x2="295.96" y2="166.78" gradientUnits="userSpaceOnUse"><stop offset="0" stop-color="#f2f2f2"/><stop offset="1" stop-color="#74529d"/></linearGradient><linearGradient id="Dégradé_sans_nom_39-2" x1="272.36" y1="40.35" x2="296.76" y2="40.35" xlink:href="#Dégradé_sans_nom_39"/><linearGradient id="Dégradé_sans_nom_11" x1="229.13" x2="229.13" y2="30" gradientUnits="userSpaceOnUse"><stop offset="0" stop-color="#74529d"/><stop offset="1" stop-color="#c8abd2"/></linearGradient><linearGradient id="Dégradé_sans_nom_39-3" x1="178.47" y1="167.79" x2="473.54" y2="167.79" xlink:href="#Dégradé_sans_nom_39"/><linearGradient id="Dégradé_sans_nom_11-2" x1="232.39" y1="274.2" x2="232.39" y2="333.56" xlink:href="#Dégradé_sans_nom_11"/><linearGradient id="Dégradé_sans_nom_11-3" x1="420.21" y1="2.33" x2="420.21" y2="61.38" xlink:href="#Dégradé_sans_nom_11"/><linearGradient id="Dégradé_sans_nom_39-4" x1="356.05" y1="230.14" x2="553.47" y2="230.14" xlink:href="#Dégradé_sans_nom_39"/></defs><g id="Calque_2" data-name="Calque 2"><g id="Calque_1-2" data-name="Calque 1"><path class="cls-1" d="M296,58.75V69A58.47,58.47,0,0,1,283.12,97L178.47,222.43l-74.61,89.43A58.75,58.75,0,1,1,13.63,236.6L186,30l6.91-8.3a58.77,58.77,0,0,1,79.39-10.09l.08.06A58.75,58.75,0,0,1,296,58.75Z"/><path class="cls-2" d="M296,69V58.75a58.75,58.75,0,0,0-23.6-47.08c1.11.8,2.21,1.65,3.28,2.54A58.82,58.82,0,0,1,296,69Z"/><path class="cls-3" d="M272.28,11.61A58.77,58.77,0,0,0,192.89,21.7L186,30a58.75,58.75,0,0,1,86.3-18.39Z"/><path class="cls-4" d="M473.54,61.38A58.53,58.53,0,0,1,459.91,99L356,223.5l-69.72,83.58-.05.06-3.94,4.72a58.74,58.74,0,1,1-90.22-75.26L296,112.1l70.9-85s0,0,0,0l2.79-3.35A58.75,58.75,0,0,1,473.54,61.38Z"/><path class="cls-5" d="M286.32,307.08a58.75,58.75,0,0,1-107.85-32.26v-.62a58.75,58.75,0,0,0,103.86,37.66l3.94-4.72Z"/><path class="cls-6" d="M473.54,61.07v.31A58.75,58.75,0,0,0,369.68,23.72l-2.79,3.35a58.75,58.75,0,0,1,106.65,34Z"/><path class="cls-7" d="M553.47,182.25a58.53,58.53,0,0,1-13.63,37.6l-79.93,95.83a58.74,58.74,0,0,1-103.85-36.94c0-.26,0-.51,0-.78a58.51,58.51,0,0,1,13.63-37.55l79.93-95.82a58.75,58.75,0,0,1,103.86,37.66Z"/><path class="cls-8" d="M785.58,186.72V103.2l-39.14,35.63L707.31,103.2v83.52H680.06V50.25h9.34l57,51.78,56.85-51.78h9.54V186.72Z"/><path class="cls-8" d="M924.18,144.67c0,24.72-20.64,44.39-46.53,44.39-25.7,0-46.34-19.67-46.34-44.39,0-24.53,20.64-44.39,46.34-44.39C903.54,100.28,924.18,120.14,924.18,144.67Zm-24.53-.19a22.85,22.85,0,0,0-6.23-16,20.93,20.93,0,0,0-15.57-6.81,20.11,20.11,0,0,0-15.19,6.81A22,22,0,0,0,856,144.67,22.47,22.47,0,0,0,862.66,161a20.61,20.61,0,0,0,15.19,6.62A21.46,21.46,0,0,0,893.42,161,24.28,24.28,0,0,0,899.65,144.48Z"/><path class="cls-8" d="M1012.36,176.79a44.59,44.59,0,1,1,0-63.85V41.88h23V186.72h-23ZM969,161a21,21,0,0,0,15.38,6.62A21.46,21.46,0,0,0,999.9,161a23.49,23.49,0,0,0,6.43-16.16,23.88,23.88,0,0,0-6.43-16.16,21.5,21.5,0,0,0-15.57-6.62A21.06,21.06,0,0,0,969,128.7a23.88,23.88,0,0,0-6.43,16.16A23.49,23.49,0,0,0,969,161Z"/><path class="cls-8" d="M1137.34,144.48c0,24.72-21.42,44.58-44,44.58-22.78,0-44-19.86-44-44.58V102.81h24.92v41.08a24.73,24.73,0,0,0,5.25,15.19,19.6,19.6,0,0,0,13.83,6.42,18.83,18.83,0,0,0,13.63-6.42,23.71,23.71,0,0,0,5.45-15.19V102.81h24.92Z"/><path class="cls-8" d="M1153.29,186.72V41.88h24.92V186.72Z"/><path class="cls-8" d="M1285.87,102.81v83.91h-20.64v-8.18a44.39,44.39,0,1,1,0-67.75l2-8Zm-24.53,41.86a22.62,22.62,0,0,0-6.43-16.16,21.06,21.06,0,0,0-15.38-6.62,21.83,21.83,0,0,0-15.57,6.62,23.49,23.49,0,0,0-6.43,16.16,23.88,23.88,0,0,0,6.43,16.16,21.83,21.83,0,0,0,15.57,6.62,21.06,21.06,0,0,0,15.38-6.62A23,23,0,0,0,1261.34,144.67Z"/><path class="cls-8" d="M1327.71,112.35c6.23-8.18,17.33-11.68,28.43-11.68a43.48,43.48,0,0,1,14.21,2.34l-9.54,21.61c-14.21-6.23-28.62,2.33-31.15,15.77v46.33h-24.34V102.81h18.89Z"/><path class="cls-8" d="M854.81,294.92c-13.94,0-23.1-8-23.5-18.62h7.37c.6,5.78,4.88,12.75,16.13,12.75,9.66,0,15.33-5.68,15.33-12.85,0-20.51-38.23-7.56-38.23-33.75,0-10.75,8.86-18.62,22.3-18.62,13.25,0,21.21,7.37,22.4,16.93h-7.56c-.8-4.88-5.48-10.85-15.14-10.95-8.16-.1-14.93,4.38-14.93,12.44,0,20.11,38.23,7.77,38.23,33.65C877.21,285.36,869.55,294.92,854.81,294.92Z"/><path class="cls-8" d="M906.25,224.63H952v5.77H932.63v63.82h-7V230.4H906.25Z"/><path class="cls-8" d="M981,224.63h7v43.81c0,14.43,7.57,20.31,18.42,20.31s18.22-5.88,18.22-20.31V224.63h7v43.71c0,18.42-11.15,26.58-25.29,26.58S981,286.76,981,268.34Z"/><path class="cls-8" d="M1118,259.57c0,21.61-13.64,34.65-36.83,34.65H1060.6V224.63h20.61C1104.4,224.63,1118,237.77,1118,259.57Zm-36.83,28.88c19.71,0,29.76-10.95,29.76-28.88s-10-29.17-29.76-29.17h-13.64v58Z"/><path class="cls-8" d="M1147.08,224.63h7v69.59h-7Z"/><path class="cls-8" d="M1217.53,294.92c-19.51,0-34.45-14.64-34.45-35.54s14.94-35.55,34.45-35.55S1252,238.57,1252,259.38,1237.15,294.92,1217.53,294.92Zm0-6.07c15.43,0,27.28-11.25,27.28-29.47S1233,230,1217.53,230s-27.28,11.15-27.28,29.37S1202.1,288.85,1217.53,288.85Z"/></g></g></svg>