<?xml version="1.0" encoding="utf-8"?>
<!-- Generator: Adobe Illustrator 23.0.1, SVG Export Plug-In . SVG Version: 6.00 Build 0)  -->
<svg version="1.1" id="quote" xmlns="http://www.w3.org/2000/svg" xmlns:xlink="http://www.w3.org/1999/xlink" x="0px" y="0px"
	 viewBox="0 0 24 24" style="enable-background:new 0 0 24 24;" xml:space="preserve">
<path d="M8.1708183,16.9999847h0.0000029c0.5081758,0,0.9727354-0.2871132,1.1999989-0.7416401L11,12.9999857V7.5102215
	c0-0.2817955-0.2284403-0.5102363-0.5102358-0.5102363h-4.979528C5.2284408,6.9999852,5,7.228426,5,7.5102215v4.9795275
	c0,0.2817955,0.2284408,0.5102367,0.5102363,0.5102367H8l-1.0291805,2.0583611
	C6.5247908,15.9504042,7.1734676,16.9999847,8.1708183,16.9999847z M16.1708183,16.9999847h0.0000038
	c0.5081749,0,0.9727345-0.2871132,1.1999969-0.7416401L19,12.9999857V7.5102215
	c0-0.2817955-0.2284412-0.5102363-0.5102367-0.5102363h-4.9795275C13.2284403,6.9999852,13,7.228426,13,7.5102215v4.9795275
	c0,0.2817955,0.2284403,0.5102367,0.5102358,0.5102367H16l-1.0291805,2.0583611
	C14.5247908,15.9504042,15.1734676,16.9999847,16.1708183,16.9999847z"/>
</svg>
